<svg width="128" height="128" viewBox="0 0 128 128" fill="none" xmlns="http://www.w3.org/2000/svg">
<rect width="128" height="128" rx="29" fill="#F8F7F8"/>
<path d="M51.875 81.2083H44.125C38.9864 81.2083 34.0583 79.3426 30.4248 76.0217C26.7913 72.7007 24.75 68.1965 24.75 63.5C24.75 58.8034 26.7913 54.2993 30.4248 50.9783C34.0583 47.6574 38.9864 45.7917 44.125 45.7917H51.875M75.125 45.7917H82.875C88.0136 45.7917 92.9417 47.6574 96.5752 50.9783C100.209 54.2993 102.25 58.8034 102.25 63.5C102.25 68.1965 100.209 72.7007 96.5752 76.0217C92.9417 79.3426 88.0136 81.2083 82.875 81.2083H75.125M48 63.5L79 63.5" stroke="black" stroke-width="6" stroke-linecap="round"/>
</svg>
