<svg width="128" height="128" viewBox="0 0 128 128" fill="none" xmlns="http://www.w3.org/2000/svg">
<path d="M51.5 82.4583H43.1667C37.6413 82.4583 32.3423 80.4609 28.4353 76.9056C24.5283 73.3502 22.3333 68.5281 22.3333 63.5C22.3333 58.4719 24.5283 53.6498 28.4353 50.0944C32.3423 46.539 37.6413 44.5417 43.1667 44.5417H51.5M76.5 44.5417H84.8333C90.3587 44.5417 95.6577 46.539 99.5647 50.0944C103.472 53.6498 105.667 58.4719 105.667 63.5C105.667 68.5281 103.472 73.3502 99.5647 76.9056C95.6577 80.4609 90.3587 82.4583 84.8333 82.4583H76.5M47.3333 63.5L80.6667 63.5" stroke="white" stroke-width="6" stroke-linecap="round"/>
</svg>
